<svg width="26" height="26" viewBox="0 0 26 26" fill="none" xmlns="http://www.w3.org/2000/svg">
<g clip-path="url(#clip0_8460_508)">
<g clip-path="url(#clip1_8460_508)">
<path d="M13 11.9167C13.857 11.9167 14.6948 11.6625 15.4074 11.1864C16.12 10.7102 16.6755 10.0334 17.0034 9.24163C17.3314 8.44982 17.4172 7.57853 17.25 6.73794C17.0828 5.89736 16.6701 5.12523 16.0641 4.51921C15.4581 3.91318 14.6859 3.50047 13.8454 3.33327C13.0048 3.16606 12.1335 3.25188 11.3417 3.57986C10.5499 3.90784 9.87308 4.46325 9.39692 5.17586C8.92077 5.88848 8.66663 6.72628 8.66663 7.58334C8.66663 8.73261 9.12317 9.83481 9.93583 10.6475C10.7485 11.4601 11.8507 11.9167 13 11.9167ZM13 5.41667C13.4285 5.41667 13.8474 5.54374 14.2037 5.78182C14.56 6.01989 14.8377 6.35828 15.0017 6.75419C15.1657 7.15009 15.2086 7.58574 15.125 8.00603C15.0414 8.42632 14.835 8.81239 14.532 9.1154C14.229 9.41841 13.8429 9.62477 13.4227 9.70837C13.0024 9.79197 12.5667 9.74906 12.1708 9.58507C11.7749 9.42108 11.4365 9.14338 11.1984 8.78707C10.9604 8.43076 10.8333 8.01186 10.8333 7.58334C10.8333 7.0087 11.0616 6.4576 11.4679 6.05127C11.8742 5.64494 12.4253 5.41667 13 5.41667Z" fill="#9E9E9E"/>
<path d="M13 14.0833C10.9887 14.0833 9.05988 14.8823 7.63773 16.3044C6.21558 17.7266 5.41663 19.6554 5.41663 21.6666C5.41663 21.954 5.53076 22.2295 5.73393 22.4327C5.93709 22.6358 6.21264 22.75 6.49996 22.75C6.78728 22.75 7.06283 22.6358 7.26599 22.4327C7.46916 22.2295 7.58329 21.954 7.58329 21.6666C7.58329 20.2301 8.15398 18.8523 9.1698 17.8365C10.1856 16.8207 11.5634 16.25 13 16.25C14.4365 16.25 15.8143 16.8207 16.8301 17.8365C17.8459 18.8523 18.4166 20.2301 18.4166 21.6666C18.4166 21.954 18.5308 22.2295 18.7339 22.4327C18.9371 22.6358 19.2126 22.75 19.5 22.75C19.7873 22.75 20.0628 22.6358 20.266 22.4327C20.4692 22.2295 20.5833 21.954 20.5833 21.6666C20.5833 19.6554 19.7843 17.7266 18.3622 16.3044C16.94 14.8823 15.0112 14.0833 13 14.0833Z" fill="#9E9E9E"/>
</g>
</g>
<defs>
<clipPath id="clip0_8460_508">
<rect width="26" height="26" fill="white"/>
</clipPath>
<clipPath id="clip1_8460_508">
<rect width="26" height="26" fill="white"/>
</clipPath>
</defs>
</svg>
